<?xml version="1.0" encoding="UTF-8" standalone="no"?>
<svg
   xmlns:dc="http://purl.org/dc/elements/1.1/"
   xmlns:cc="http://creativecommons.org/ns#"
   xmlns:rdf="http://www.w3.org/1999/02/22-rdf-syntax-ns#"
   xmlns:svg="http://www.w3.org/2000/svg"
   xmlns="http://www.w3.org/2000/svg"
   xmlns:sodipodi="http://sodipodi.sourceforge.net/DTD/sodipodi-0.dtd"
   xmlns:inkscape="http://www.inkscape.org/namespaces/inkscape"
   width="298.5192"
   height="300"
   viewBox="0 0 238.81536 240"
   version="1.1"
   id="svg2"
   inkscape:version="0.47 r22583"
   sodipodi:docname="Hanoi_Logo.svg">
  <metadata
     id="metadata31">
    <rdf:RDF>
      <cc:Work
         rdf:about="">
        <dc:format>image/svg+xml</dc:format>
        <dc:type
           rdf:resource="http://purl.org/dc/dcmitype/StillImage" />
      </cc:Work>
    </rdf:RDF>
  </metadata>
  <defs
     id="defs29">
    <inkscape:perspective
       sodipodi:type="inkscape:persp3d"
       inkscape:vp_x="0 : 268.75 : 1"
       inkscape:vp_y="0 : 1000 : 0"
       inkscape:vp_z="537.5 : 268.75 : 1"
       inkscape:persp3d-origin="268.75 : 179.16667 : 1"
       id="perspective33" />
  </defs>
  <sodipodi:namedview
     pagecolor="#ffffff"
     bordercolor="#666666"
     borderopacity="1"
     objecttolerance="10"
     gridtolerance="10"
     guidetolerance="10"
     inkscape:pageopacity="0"
     inkscape:pageshadow="2"
     inkscape:window-width="1280"
     inkscape:window-height="750"
     id="namedview27"
     showgrid="false"
     inkscape:zoom="0.87813953"
     inkscape:cx="297.87935"
     inkscape:cy="241.0202"
     inkscape:window-x="-8"
     inkscape:window-y="-8"
     inkscape:window-maximized="1"
     inkscape:current-layer="svg2" />
  <g
     id="#000071ff"
     transform="matrix(0.58479401,0,0,0.58479401,-6.0300101,-5.0963421)">
    <path
       d="m 178.24,18.27 c 7.61,-0.86 15.11,-2.54 22.73,-3.27 9.02,-0.01 18.04,-0.01 27.06,0 7.9,0.8 15.7,2.46 23.58,3.43 11.2,2.82 22.6,5.1 33.26,9.67 8.08,2.25 15.29,6.61 22.79,10.24 9.53,5.66 19.22,11.16 27.92,18.08 9.66,6.87 17.85,15.45 26.19,23.81 15.21,16.94 27.35,36.5 36.82,57.17 2.57,8.03 6.18,15.73 8.02,24 1.3,5.63 2.94,11.18 4.12,16.84 0.85,7.6 2.54,15.11 3.27,22.73 -0.03,10.34 0.08,20.68 -0.06,31.02 -1.77,11.88 -3.14,23.85 -6.54,35.41 -1.87,9.4 -5.81,18.16 -8.82,27.2 -9.46,20.67 -21.6,40.23 -36.82,57.17 -4.35,4.31 -8.68,8.64 -12.99,12.99 -17.15,15.36 -36.91,27.69 -57.89,37.1 -6.37,1.84 -12.3,4.99 -18.82,6.36 -0.16,-38.4 0.01,-76.81 -0.08,-115.21 -38.32,-0.02 -76.64,-0.02 -114.97,0 -0.07,38.4 0.08,76.8 -0.07,115.2 -6.52,-1.36 -12.45,-4.51 -18.82,-6.35 -20.98,-9.41 -40.74,-21.74 -57.89,-37.09 -5.99,-6.34 -12.73,-12 -18.03,-18.96 -9.47,-10.92 -17.05,-23.28 -24.2,-35.8 -3.21,-6.84 -7.31,-13.32 -9.38,-20.64 -2.39,-6.44 -4.98,-12.83 -6.43,-19.57 -1.5,-6.85 -3.9,-13.52 -4.48,-20.54 -0.98,-6.07 -2.09,-12.12 -2.71,-18.23 0.03,-10.34 -0.08,-20.68 0.05,-31.01 1.77,-11.88 3.15,-23.86 6.55,-35.42 1.87,-9.4 5.81,-18.15 8.82,-27.2 9.46,-20.67 21.6,-40.23 36.82,-57.17 7.54,-7.47 14.8,-15.28 23.32,-21.66 14.39,-11.25 30.25,-20.54 46.84,-28.15 8.03,-2.58 15.73,-6.19 23.99,-8.03 5.64,-1.3 11.19,-2.94 16.85,-4.12 m -24.38,31.57 c -8.33,2.33 -15.81,6.72 -23.53,10.51 -6.46,3.74 -12.97,7.46 -18.76,12.23 -10.5,7.34 -19.36,16.6 -28.32,25.68 -5.27,6.12 -10.19,12.51 -14.98,19.02 -6.04,8.98 -10.92,18.66 -15.56,28.42 -1.4,3.37 -2.28,6.94 -3.71,10.31 -5.68,14.03 -7.9,29.1 -9.95,44 -0.13,10.34 -0.02,20.68 -0.05,31.02 1.96,15.74 4.44,31.65 10.57,46.39 4.08,12.87 10.84,24.69 17.88,36.14 6.62,8.94 13.17,18.04 21.3,25.69 3.38,3.29 6.58,6.76 10.04,9.97 9.25,7.57 18.45,15.46 29.21,20.86 0.01,-34.35 -0.02,-68.71 0.01,-103.06 9.33,-0.06 18.65,0.02 27.98,-0.03 0.02,-16.33 0.02,-32.65 -0.01,-48.98 -19.55,-0.08 -39.11,0.1 -58.66,-0.08 C 84,204.28 70.27,191.01 56.96,177.34 c 7.1,-6.58 13.65,-13.74 20.7,-20.38 10.02,10.52 20.57,20.52 30.66,30.97 25.56,0.18 51.11,0 76.67,0.09 0.04,25.99 -0.02,51.98 0.02,77.97 19.66,0.02 39.32,0.02 58.98,0 0.04,-25.99 -0.02,-51.98 0.02,-77.97 25.56,-0.09 51.11,0.09 76.67,-0.09 9.41,-9.69 19.12,-19.07 28.55,-28.73 0.83,-0.63 1.4,-1.87 2.54,-1.94 6.65,6.65 13.32,13.3 19.95,19.96 -0.23,0.39 -0.69,1.15 -0.91,1.54 -13.09,13.01 -26.18,26.02 -39.13,39.17 -19.56,0.19 -39.11,-0.01 -58.67,0.09 -0.02,16.32 -0.02,32.64 0.01,48.97 9.32,0.05 18.64,-0.03 27.97,0.03 0.03,34.35 0,68.71 0.01,103.06 5.4,-2.76 10.57,-5.98 15.29,-9.8 8.05,-5.83 15.66,-12.26 22.46,-19.53 8.71,-8.07 15.8,-17.65 22.8,-27.19 7.04,-11.45 13.8,-23.27 17.88,-36.14 6.06,-14.44 8.42,-30.03 10.52,-45.44 0.09,-10.65 0.09,-21.31 0,-31.97 -1.5,-10.19 -2.75,-20.47 -5.54,-30.41 -1.84,-7.98 -5.35,-15.42 -7.82,-23.2 -4.67,-10.03 -9.7,-19.92 -15.86,-29.13 C 354.2,108.56 347.75,99.69 339.75,92.25 327.59,79.46 313.5,68.47 298.01,60 290.72,56.49 283.72,52.27 275.87,50.1 260.68,43.7 244.29,40.96 228.03,39 c -9.34,0.03 -18.68,-0.08 -28.02,0.05 -15.66,2.11 -31.49,4.58 -46.15,10.79 z"
       id="path5"
       style="fill:#000071" />
    <path
       d="m 162.28,84.04 c 8.26,-0.1 16.53,-0.02 24.8,-0.04 -0.75,2.66 -1.41,5.34 -2.16,8 19.72,0 39.44,0 59.16,0 -0.75,-2.66 -1.41,-5.34 -2.16,-8 8.27,0.01 16.53,-0.05 24.8,0.04 6.36,15.56 12.23,31.32 18.49,46.92 -10.33,0.08 -20.66,0.05 -30.99,0.01 -1.07,-4 -1.7,-8.15 -3.24,-12.01 -24.32,0.07 -48.64,0.07 -72.96,0 -1.54,3.87 -2.17,8.01 -3.24,12.01 -10.33,0.04 -20.66,0.07 -30.99,-0.01 6.26,-15.6 12.12,-31.36 18.49,-46.92 z"
       id="path7"
       style="fill:#000071" />
    <path
       d="m 104.73,129.69 c 0.67,-0.52 1.66,-2.21 2.53,-0.98 6.32,6.44 12.79,12.74 19.07,19.22 58.78,0.11 117.57,0.12 176.35,0 6.44,-6.61 12.98,-13.13 19.54,-19.62 l 0.56,0 c 6.22,6.2 12.51,12.34 18.58,18.69 -8.73,9.13 -17.91,17.83 -26.68,26.93 -66.79,0.12 -133.57,0.12 -200.36,0 -8.77,-9.1 -17.95,-17.8 -26.68,-26.93 5.55,-5.92 11.48,-11.45 17.09,-17.31 z"
       id="path9"
       style="fill:#000071" />
    <path
       d="m 187.76,367.01 c 2.35,-0.03 4.69,-0.01 7.04,0 1.52,1.95 2.91,3.99 4.33,6.02 -1.92,-0.04 -3.86,0.12 -5.75,-0.25 -2.11,-1.68 -3.86,-3.75 -5.62,-5.77 z"
       id="path11"
       style="fill:#000071" />
    <path
       d="m 245.39,367.22 c 2.37,-0.43 4.85,-0.43 7.22,0 2.12,1.67 3.87,3.74 5.63,5.77 -2.26,0.03 -4.51,0 -6.76,-0.07 -0.36,-2.7 -4.58,-2.68 -4.96,-0.01 -2.25,0.08 -4.51,0.11 -6.76,0.08 1.76,-2.02 3.51,-4.09 5.63,-5.77 z"
       id="path13"
       style="fill:#000071" />
    <path
       d="m 159.01,374.01 c 2.99,-0.03 5.99,-0.03 8.98,0 0.01,4.33 0.01,8.66 0.03,12.99 0.74,0 2.22,0 2.96,0 0.02,-4.33 0.02,-8.66 0.03,-12.99 2.99,-0.03 5.98,-0.03 8.98,0 0.02,11.33 0.02,22.65 0,33.98 -3,0.03 -5.99,0.03 -8.98,0 -0.02,-4.67 0,-9.33 -0.03,-13.99 -0.74,0 -2.22,0 -2.96,0 -0.03,4.66 -0.01,9.32 -0.03,13.99 -2.99,0.02 -5.98,0.02 -8.98,0 -0.02,-11.33 -0.02,-22.65 0,-33.98 z"
       id="path15"
       style="fill:#000071" />
    <path
       d="m 187.18,374.02 c 4.55,-0.05 9.09,-0.03 13.64,0 1.68,11.32 3.34,22.66 5.29,33.94 -3.36,0.06 -6.71,0.06 -10.06,0.03 -0.04,-2 -0.06,-4 -0.1,-5.99 -1.3,-0.01 -2.6,-0.01 -3.9,0 -0.04,1.99 -0.06,3.99 -0.09,5.99 -3.36,0.03 -6.72,0.04 -10.07,-0.03 1.95,-11.28 3.61,-22.62 5.29,-33.94 m 5.81,14.98 c 0.01,2.33 0.01,4.67 0.01,7.01 0.5,-0.01 1.5,-0.01 2.01,-0.01 -0.01,-2.34 -0.01,-4.67 -0.01,-7 -0.5,0 -1.5,0 -2.01,0 z"
       id="path17"
       style="fill:#000071" />
    <path
       d="m 216.02,373.99 c 2.25,0.01 4.5,0.01 6.76,0.02 1.49,3.75 2.3,7.75 4.08,11.39 0.27,-3.79 0.11,-7.59 0.15,-11.39 2.99,-0.03 5.98,-0.03 8.98,0 0.02,11.33 0.02,22.66 0,33.99 -2.62,0 -5.23,0 -7.84,0 -1.28,-3.39 -1.5,-7.11 -3,-10.41 -0.28,3.46 -0.13,6.93 -0.16,10.4 -2.99,0.02 -5.98,0.02 -8.98,0 -0.02,-11.33 -0.03,-22.67 0.01,-34 z"
       id="path19"
       style="fill:#000071" />
    <path
       d="m 244.35,374.27 c 3.6,-0.47 7.88,-1.05 10.89,1.48 2.18,1.74 4.02,4.31 3.78,7.23 -0.01,5.34 -0.01,10.69 0,16.04 0.2,4.16 -3.32,7.89 -7.19,8.89 -3.17,0.12 -6.76,0.74 -9.5,-1.24 -2.45,-1.75 -4.61,-4.48 -4.34,-7.65 -0.01,-5.35 -0.01,-10.69 -0.01,-16.03 -0.23,-3.95 2.92,-7.29 6.37,-8.72 m 2.67,5.73 c -0.04,7.33 -0.04,14.67 0,22 0.74,0 2.22,0 2.96,0 0.04,-7.33 0.04,-14.67 0,-22 -0.74,0 -2.22,0 -2.96,0 z"
       id="path21"
       style="fill:#000071" />
    <path
       d="m 261.01,374.01 c 2.99,-0.03 5.98,-0.03 8.98,0 0.02,11.33 0.02,22.65 0,33.98 -3,0.02 -5.99,0.02 -8.98,0 -0.02,-11.33 -0.02,-22.65 0,-33.98 z"
       id="path23"
       style="fill:#000071" />
    <path
       d="m 245,409.01 c 2.33,0 4.66,0 7,-0.01 0,2.33 0,4.66 0,7 -2.34,0 -4.67,0 -7,0 0,-2.33 0,-4.66 0,-6.99 z"
       id="path25"
       style="fill:#000071" />
  </g>
</svg>
